PathFileType	4	(X/Y/Z)	Kaydara																																																																																																																									
DataRate	CameraRate	NumFrames	NumMarkers	Units	OrigDataRate	OrigDataStartFrame	OrigNumFrames																																																																																																																					
30	30	7	41	mm	30	302	345																																																																																																																					
Frame#	Time	NABA_LFHD			NABA_RFHD			NABA_LBHD			NABA_RBHD			NABA_LFTShould			NABA_RFTShould			NABA_LRRShould			NABA_RRRShould			NABA_T10			NABA_STRN			NABA_TRUN			NABA_LSHO			NABA_LUPA			NABA_LELB			NABA_LFRM			NABA_LWRA			NABA_LWRB			NABA_LFIN			NABA_RSHO			NABA_RUPA			NABA_RELB			NABA_RFRM			NABA_RWRA			NABA_RWRB			NABA_RFIN			NABA_LFWT			NABA_RFWT			NABA_LBWT			NABA_RBWT			NABA_LTHI			NABA_LKNE			NABA_LSHN			NABA_LANK			NABA_LHEE			NABA_LTOE			NABA_RTHI			NABA_RKNE			NABA_RSHN			NABA_RANK			NABA_RHEE			NABA_RTOE		
		X1	Y1	Z1	X2	Y2	Z2	X3	Y3	Z3	X4	Y4	Z4	X5	Y5	Z5	X6	Y6	Z6	X7	Y7	Z7	X8	Y8	Z8	X9	Y9	Z9	X10	Y10	Z10	X11	Y11	Z11	X12	Y12	Z12	X13	Y13	Z13	X14	Y14	Z14	X15	Y15	Z15	X16	Y16	Z16	X17	Y17	Z17	X18	Y18	Z18	X19	Y19	Z19	X20	Y20	Z20	X21	Y21	Z21	X22	Y22	Z22	X23	Y23	Z23	X24	Y24	Z24	X25	Y25	Z25	X26	Y26	Z26	X27	Y27	Z27	X28	Y28	Z28	X29	Y29	Z29	X30	Y30	Z30	X31	Y31	Z31	X32	Y32	Z32	X33	Y33	Z33	X34	Y34	Z34	X35	Y35	Z35	X36	Y36	Z36	X37	Y37	Z37	X38	Y38	Z38	X39	Y39	Z39	X40	Y40	Z40	X41	Y41	Z41
																																																																																																																												
302	10.043	309.39116	1421.3501	1686.07651	140.08767	1390.2626	1672.71393	329.36428	1507.70615	1595.50308	111.54388	1460.87814	1603.75824	308.89061	1280.9613	1504.57245	176.1659	1275.63911	1495.16632	315.54888	1355.3093	1400.69809	165.98764	1350.79254	1398.08136	255.20361	1203.46962	1301.22894	241.11389	1221.04218	1539.86526	239.16115	1119.4783	1576.74332	412.07066	1311.22421	1463.68576	471.04385	1076.90536	1410.37598	478.66188	990.03204	1427.84073	470.73219	917.69203	1402.10709	404.90398	771.20583	1473.69705	477.64259	768.33733	1474.56024	452.59357	710.16174	1513.81836	84.35662	1308.34427	1453.71948	35.91687	1112.66258	1362.32559	6.10914	987.06535	1393.02475	2.22123	891.95427	1394.69162	67.50253	764.90669	1469.15512	-6.13296	752.67212	1465.38315	9.13332	713.93852	1493.87085	366.82629	913.04245	1498.25424	102.72048	912.1682	1475.82703	334.23149	978.89542	1326.61148	164.49181	993.49953	1309.07944	369.52408	609.24549	1384.82178	354.90036	466.65905	1456.56494	289.60396	276.61036	1493.99261	311.57415	119.87983	1438.21167	255.79147	71.77806	1380.28198	268.23666	42.27065	1569.12476	107.66571	633.97781	1317.21664	93.93185	460.00393	1421.0228	108.04225	307.74876	1313.81958	112.3632	194.63085	1145.09743	165.81312	197.08275	1066.03355	168.96637	44.80214	1200.42671
303	10.077	313.0558	1420.14893	1700.89066	143.68171	1389.534	1687.37732	333.3263	1506.80649	1610.71365	115.31892	1460.49622	1618.76511	312.05328	1280.72083	1518.95111	179.46304	1275.78712	1509.45114	318.96954	1355.39825	1415.42084	169.51456	1351.29547	1412.37427	258.83862	1204.33372	1314.07013	244.15648	1220.88409	1554.15253	241.93436	1119.11255	1590.61661	415.38845	1311.01883	1478.50937	473.97434	1076.14395	1426.45905	481.41239	989.35677	1444.60831	473.10284	916.59348	1419.61578	407.01756	771.16035	1491.92474	478.87711	768.37196	1494.72168	453.46676	711.08528	1534.77158	87.79611	1308.76678	1467.92191	39.0245	1112.95517	1377.155	9.56076	987.35031	1407.87079	6.47521	891.92352	1411.01334	73.24672	766.68007	1486.92673	-0.25592	753.60306	1483.65891	15.3469	715.67482	1512.69028	369.64821	913.59184	1512.14951	105.71426	912.44247	1489.20853	336.29669	979.2791	1339.77081	167.48169	993.10402	1322.25616	372.39063	610.16205	1394.64859	357.14523	466.39828	1463.32352	290.69532	275.842	1497.68631	312.21058	119.95739	1439.65057	256.33244	72.57607	1380.88806	268.5463	42.31545	1569.18427	109.36527	630.64068	1339.2308	94.51219	459.98253	1449.89868	108.4451	310.25387	1339.91821	111.60458	203.9967	1166.79367	165.13807	211.86232	1088.64693	167.40143	45.79392	1208.80737
304	10.11	316.56216	1418.9151	1714.29657	147.10905	1388.85162	1700.99442	336.93283	1505.91461	1624.46747	118.83993	1460.21332	1632.76108	314.81344	1280.38422	1532.29568	182.28279	1275.80383	1522.67212	322.20921	1355.29388	1428.91907	172.67212	1351.53412	1425.52658	262.15466	1204.59534	1327.53235	246.724	1220.50255	1567.19818	244.11644	1118.69408	1603.56171	418.25069	1310.73273	1492.36237	476.02699	1075.20752	1441.10641	483.42236	988.61771	1459.9469	474.61288	915.26123	1436.34842	406.02505	772.36839	1513.23563	479.15909	768.36891	1513.73779	453.66165	712.17361	1554.87152	90.88485	1309.05609	1481.00906	41.23499	1112.948	1390.62714	12.50077	987.28783	1422.30743	10.14931	891.52237	1426.34979	79.37158	768.28781	1504.36691	5.99298	754.40514	1501.96625	22.16872	717.27539	1531.716	372.16793	913.53348	1524.90784	108.39047	912.09579	1500.57648	338.36479	979.60976	1352.2702	170.08205	992.68349	1334.45663	374.56867	610.78491	1402.94556	358.78807	465.91286	1469.68826	291.30276	275.13952	1501.05667	312.52069	119.99857	1440.94345	256.5127	73.1852	1381.41464	268.68176	42.18184	1569.077	110.35635	627.14062	1361.67664	95.01238	460.61089	1479.86465	108.59971	313.27358	1368.14941	111.10483	212.68122	1191.52809	165.02678	225.07683	1115.34744	165.70236	46.64335	1219.95651
305	10.143	319.75979	1418.03024	1726.68427	150.19363	1388.34122	1713.76419	340.06779	1505.1741	1636.97418	121.89192	1459.86099	1645.66238	317.18769	1279.97665	1544.76395	184.60968	1275.61996	1534.79065	325.04753	1355.04745	1441.53748	175.53726	1351.62811	1437.61139	265.13727	1204.74365	1339.2807	248.88403	1220.18608	1579.32922	246.03231	1118.30734	1615.53116	420.85732	1310.31479	1505.27634	477.82745	1074.10515	1454.84009	484.7747	987.60872	1474.18442	475.37128	913.90259	1451.55869	406.28948	772.50298	1529.84421	478.75999	768.17017	1531.22131	453.10371	713.14781	1573.6264	93.53811	1309.12964	1492.88544	43.30624	1112.62535	1403.82736	15.16366	986.97876	1436.10718	13.98871	890.89401	1442.08939	85.46974	769.89021	1521.24527	12.23185	755.13435	1519.91684	29.17863	718.9077	1550.1709	374.45641	913.15231	1536.43036	110.7629	912.20367	1512.11502	340.89664	979.42375	1363.92532	172.22458	992.12563	1345.6517	376.2188	611.09978	1410.88852	359.86683	465.24094	1475.45883	291.38866	274.32684	1504.07715	312.51429	119.79798	1442.41531	256.56242	73.72829	1381.94519	268.68626	42.33299	1569.26025	110.98969	624.18915	1384.09058	95.48289	462.45735	1509.77325	109.51403	316.08223	1397.78625	110.60317	219.63413	1219.11942	165.18312	234.82183	1144.19518	160.99957	49.1573	1238.73093
306	10.177	322.48039	1417.21848	1738.19641	152.8486	1387.65457	1725.33936	342.80487	1504.62479	1648.74893	124.56256	1459.36554	1657.44156	319.28762	1279.61555	1556.19217	186.83907	1275.48561	1546.0582	327.55409	1354.89349	1453.21838	178.06414	1351.7926	1449.29993	267.65371	1204.81354	1350.20386	250.86123	1219.75792	1590.48233	247.80014	1117.87308	1626.61453	423.176	1309.94156	1517.19162	479.41551	1073.03734	1467.97409	485.70988	986.56631	1487.73666	475.66498	912.52663	1465.86548	404.45812	773.18214	1547.21664	477.51141	767.84393	1547.52747	451.73603	713.9135	1590.67734	95.98089	1309.21417	1503.99841	45.40076	1112.25426	1415.81329	17.44892	986.7173	1449.07181	17.26713	890.32982	1456.87012	91.35037	771.7923	1537.50549	18.12274	756.07376	1537.31812	35.70745	721.22017	1568.64548	376.63197	912.89726	1547.04575	112.90024	912.54082	1523.38654	343.22113	978.93707	1374.75281	173.81409	991.6111	1356.33896	377.26517	611.27232	1418.19138	360.66586	464.59774	1481.00723	291.32471	273.64227	1507.1579	312.31167	119.68059	1443.59329	256.29492	74.31521	1382.58255	268.5548	42.21426	1569.27505	111.24249	622.1167	1405.68756	95.90942	465.31261	1538.69614	110.35271	318.8619	1427.84821	111.52105	224.32922	1247.59094	166.59836	239.44765	1172.48604	151.56894	56.83698	1272.15736
307	10.21	324.66488	1416.47003	1748.83362	155.03885	1386.95953	1735.88623	344.94255	1504.17816	1659.67392	126.75923	1458.96774	1668.26035	321.37077	1279.59427	1566.77933	188.97615	1275.52963	1556.52847	330.00694	1354.83276	1463.79257	180.3841	1351.96167	1459.78851	269.78161	1205.05234	1360.37796	252.95826	1219.55093	1600.80292	249.80961	1117.72499	1636.96579	425.35786	1309.79813	1527.99576	480.66887	1072.09923	1480.43457	486.26865	985.63629	1500.53635	475.709	911.46561	1479.27002	402.92519	773.53317	1561.63116	476.02856	767.58057	1562.36099	449.46281	714.39362	1606.09436	98.23783	1309.38202	1514.41452	47.09188	1112.03842	1427.18307	19.43947	986.54053	1461.42242	19.81906	890.06599	1471.03439	96.11353	773.40408	1553.2547	22.78457	757.66418	1554.27078	40.92943	724.72694	1586.99265	378.53477	912.73544	1557.00592	114.95038	913.19839	1534.3161	344.33617	978.67714	1384.39957	174.98871	991.41266	1366.57425	377.7388	611.47514	1425.13947	361.10634	464.11552	1486.09344	290.96228	272.54089	1509.65988	312.16969	119.63645	1444.63165	256.05495	74.92052	1383.10684	268.52859	42.18208	1569.36676	110.7258	621.06377	1426.3504	96.89855	469.30286	1566.4299	111.4031	321.15204	1458.4584	112.16271	224.74766	1279.05418	168.47916	236.51218	1202.62527	142.7401	64.99194	1316.05209
308	10.243	326.41563	1416.08704	1758.93951	156.73115	1386.67419	1745.61401	346.8877	1504.09424	1670.0827	128.69157	1458.87253	1678.12073	323.4869	1279.76723	1576.68625	191.04458	1275.85968	1566.47812	332.13142	1354.97421	1473.71796	182.55857	1352.21344	1469.6489	271.81433	1205.19791	1370.34668	255.02029	1219.90402	1610.73776	251.8457	1118.00957	1646.86203	427.45277	1309.8317	1537.99088	481.70261	1071.35796	1491.89697	486.41579	985.04166	1512.55035	475.57911	910.78583	1491.70944	401.26377	773.90831	1574.43924	474.15737	767.51862	1575.82184	446.85986	714.78607	1619.59564	100.37535	1309.71832	1524.20944	48.38503	1111.72798	1437.93701	20.99826	986.72424	1473.43292	21.38795	890.35454	1484.62982	98.64942	774.65683	1567.61292	25.09818	759.45366	1570.20966	43.20217	727.73621	1603.72162	380.20218	912.40051	1566.37573	116.75438	914.14948	1544.62769	344.6405	978.19473	1393.32947	175.8223	991.61079	1376.2149	377.85862	611.67225	1431.86325	361.16898	463.56899	1491.16943	290.72121	271.71078	1512.24075	311.98601	119.38127	1445.39337	255.66776	75.42518	1383.87589	268.76299	42.14279	1569.13696	109.84891	620.72674	1446.36276	99.02599	474.4442	1592.60681	112.74656	321.88892	1490.03525	112.22763	219.60619	1314.25095	168.99939	226.1833	1236.73447	135.57879	67.90266	1363.79349
